<svg width="300" height="300" viewBox="0 0 300 300" fill="none" xmlns="http://www.w3.org/2000/svg">
<path d="M141.308 1.81641C127.472 11.744 116.791 14.1501 81.7462 14.8266L58.5085 15.3531L56.3289 17.8358C52.3431 22.2746 54.0727 28.1399 59.938 30.0929C63.6972 31.296 98.8186 30.4695 110.549 28.8899C121.303 27.4603 131.984 24.6776 138.376 21.6715L143.265 19.3388L144.768 21.445C157.478 38.8909 170.638 48.595 191.546 55.8133C207.262 61.3021 221.702 63.4082 242.91 63.3348L258.327 63.2613L256.597 71.6092C255.094 78.5276 254.718 82.4398 254.641 93.1939C254.565 107.484 255.244 112.522 258.777 123.427C262.762 135.61 269.081 146.741 278.179 157.418L282.541 162.607L279.382 169.076C272.687 182.612 269.981 195.096 269.981 212.545C269.981 225.102 271.484 236.159 274.87 247.74C277.276 255.861 278.705 258.494 281.788 260.3C285.097 262.256 289.309 260.827 291.416 256.991C292.995 253.982 293.145 254.961 289.309 241.951C281.788 216.674 284.721 188.175 296.754 169.372C298.41 166.816 299.687 163.731 299.913 161.928C300.213 158.995 299.99 158.618 294.798 152.903C279.082 135.757 271.787 120.864 270.057 101.989C268.854 89.8052 270.96 73.6358 275.323 60.9286C279.235 49.5715 275.399 44.8358 263.816 46.5654C252.911 48.145 232.833 48.3715 222.002 47.0154C188.764 42.7297 166.049 29.4929 155.222 8.13479C153.869 5.35213 151.839 2.41948 150.709 1.51641C148 -0.589707 144.468 -0.513182 141.308 1.81641Z" fill="#E10856"/>
<path d="M107.014 54.0102C101.525 55.4398 95.7336 59.2756 77.2347 73.7153L57.7561 88.8317L46.7755 88.3051C33.6153 87.7051 18.5755 88.8317 11.5806 91.0113C8.12143 92.0643 5.5653 93.4939 3.30918 95.6L0 98.6796V113.796V128.912L4.06224 121.544C10.2306 110.34 13.5367 106.354 17.449 105.301C23.1643 103.721 48.5847 103.421 61.5183 104.775C67.8367 105.451 74.302 106.431 75.8081 106.954C78.7408 108.007 116.268 135.757 128.752 146.135C132.738 149.52 136.047 152.677 136.047 153.203C136.123 154.859 129.805 160.571 125.369 162.754C121.534 164.557 120.407 164.784 115.895 164.484C109.73 164.034 104.614 161.401 98.3724 155.533C96.1928 153.427 93.7102 151.247 92.8071 150.644C91.001 149.441 60.5449 142.069 57.2357 142.069C52.6469 142.069 51.4439 143.349 42.4194 158.089C32.5684 174.182 31.5888 177.041 34.6745 180.727C35.8041 181.93 37.5306 182.909 39.2633 183.209C43.849 183.886 45.9551 181.93 53.3265 169.822C58.8918 160.648 60.2449 158.995 61.901 158.768C63.4806 158.542 63.9306 158.845 63.9306 160.045C63.9306 160.798 64.5306 162.978 65.3602 164.784C67.8428 170.576 70.699 181.853 71.9785 190.428C75.0612 212.236 70.249 232.617 58.2918 249.013C52.2 257.435 52.05 262.023 57.7653 264.956C62.5775 267.362 66.9398 264.356 73.8581 253.752C83.4826 239.086 87.9949 222.993 87.9949 203.364C87.9949 189.828 85.4387 174.561 81.5265 164.334C80.55 161.851 83.4061 163.207 88.8979 167.869C95.5898 173.511 99.502 175.917 106.044 178.173C108.75 179.15 111.006 179.977 111.083 180.053C111.156 180.053 110.406 182.609 109.353 185.692C107.623 190.504 107.397 192.234 107.7 198.102C107.926 203.741 108.376 205.697 110.333 209.986C114.318 218.407 121.99 225.179 131.014 228.035C132.217 228.485 132.217 228.788 130.864 232.62C126.579 244.804 129.135 256.838 138.083 266.162C147.934 276.466 162.75 279.399 175.307 273.381C177.563 272.328 185.008 267.139 191.853 261.8C206.819 250.143 207.046 250.066 204.263 253.829C191.93 270.448 176.74 285.491 160.644 296.845L156.199 300.001H169.136H181.996L185.605 296.842C196.886 286.841 207.04 275.86 214.935 265.183C223.133 254.129 231.631 237.959 231.631 233.37C231.631 231.341 232.231 229.911 233.96 227.955C239.452 221.713 242.911 209.68 241.482 202.011C239.828 193.363 236.593 187.421 230.427 182.006C226.892 178.923 219.973 175.161 217.794 175.161C216.291 175.161 216.291 175.311 218.17 171.099C220.126 166.587 220.803 158.689 219.673 153.2C217.041 140.716 206.74 130.112 194.706 127.48L192.75 127.03L193.876 121.991C194.78 117.855 194.853 115.826 194.253 111.387C191.32 91.1582 171.992 77.9215 152.666 82.9602C148.231 84.0898 147.401 83.7868 147.401 80.7041C147.401 78.0715 144.995 71.9796 142.512 67.9205C139.43 63.1082 134.767 59.1225 128.749 56.1898C124.613 54.1602 123.11 53.8602 116.715 53.6337C112.73 53.4837 108.37 53.7072 107.014 54.0102ZM123.11 70.5531C131.532 74.7653 134.767 85.0664 130.479 93.7174C128.899 96.7266 126.869 98.8296 120.551 103.795C116.115 107.254 111.903 110.563 111.15 111.163C109.87 112.066 108.594 111.313 98.2898 103.492C86.7092 94.7674 83.0234 92.4378 80.8408 92.4378C80.1643 92.4378 79.7112 92.1378 79.8643 91.7613C80.0908 91.0082 99.1163 75.8919 104.455 72.2092C110.25 68.0735 117.168 67.4705 123.11 70.5531ZM166.126 98.1531C176.804 101.312 182.069 113.719 177.031 123.797C175.527 126.956 173.721 128.759 167.856 133.198C163.87 136.281 158.305 140.493 155.599 142.672L150.637 146.582L148.831 144.026C147.024 141.469 134.467 130.565 127.246 125.223C125.063 123.644 123.334 122.064 123.487 121.688C123.713 121.088 147.177 102.662 150.637 100.33C152.893 98.9 158.308 97.097 160.638 97.0204C161.464 96.95 163.944 97.4766 166.126 98.1531ZM192.747 142.899C196.356 143.876 201.168 148.164 203.201 152.15C205.381 156.362 205.231 162.981 202.901 167.566C201.398 170.499 197.336 173.958 174.851 191.481C160.411 202.761 147.628 212.312 146.348 212.762C142.662 214.042 135.667 213.665 132.435 212.009C125.366 208.473 121.304 199.826 123.26 192.607C124.763 186.815 126.569 184.786 138.903 175.311C145.445 170.272 157.252 161.171 165.073 155.083C172.968 148.991 180.566 143.576 181.996 143.049C185.229 141.922 188.988 141.849 192.747 142.899ZM216.361 191.031C226.815 196.069 229.598 209.606 221.926 218.104C218.317 222.016 172.668 257.511 168.759 259.391C157.705 264.806 144.392 256.158 144.392 243.598C144.392 238.483 146.271 234.347 150.107 230.738C155.372 225.849 198.089 192.91 201.471 191.181C205.834 188.924 211.925 188.851 216.361 191.031Z" fill="white"/>
</svg>
