<svg width="300" height="257" viewBox="0 0 300 257" fill="none" xmlns="http://www.w3.org/2000/svg">
<path d="M259.433 9.09461C241.317 14.0967 225.885 18.1835 225.215 18.2447C224.483 18.2447 207.769 14.2804 188.07 9.40073C168.367 4.52109 151.166 0.556761 149.825 0.556761C148.546 0.556761 132.808 4.52109 114.936 9.40073C97.0034 14.2804 81.7553 18.2447 81.0849 18.2447C80.3533 18.2447 63.8837 14.2804 44.4264 9.40073C24.7242 4.45987 7.82915 0.556761 6.30465 0.556761C2.94952 0.556761 0.815824 2.32618 0.206635 5.49763C0.0229594 6.65785 -0.0382657 58.0134 0.0229594 119.621L0.206635 231.73L1.79236 233.316C3.19442 234.718 8.80569 236.426 41.7448 245.515C62.849 251.371 80.537 256.128 81.0268 256.128C81.5166 256.128 97.3126 251.98 116.038 246.856L150.135 237.586L187.708 246.917L225.276 256.309L260.349 245.757C279.561 239.962 296.031 234.837 296.824 234.29C300.179 232.095 299.995 239.353 299.995 117.971C299.995 -5.97289 300.301 2.56802 296.092 0.859837C294.874 0.373098 293.591 -0.0554896 293.165 0.00573542C292.737 0.00879667 277.55 4.15374 259.433 9.09461ZM186.545 21.9059C206.673 26.908 223.935 31.056 224.912 31.056C226.253 31.056 277.428 17.4549 286.152 14.8314C287.129 14.5253 287.19 19.7723 287.19 119.621V224.717L255.901 234.048L224.67 243.443L187.95 234.231C167.7 229.168 150.682 225.02 150.131 225.02C149.522 225.02 133.784 229.168 115.181 234.231L81.2686 243.443L47.1724 234.048L13.0119 224.591L12.8282 119.618C12.767 61.8553 12.8282 14.5834 13.0119 14.5834C13.1955 14.5834 28.1375 18.3028 46.254 22.8182C64.3705 27.3335 80.0441 31.053 81.1431 31.053C82.2421 31.053 97.9769 26.9662 116.093 21.9641C134.21 16.962 149.213 12.8753 149.519 12.814C149.764 12.7559 166.417 16.8426 186.545 21.9059Z" fill="white"/>
<path d="M88.4018 73.5064C83.216 75.337 81.3272 77.5319 81.5078 81.3738C81.6915 83.8748 84.6793 86.5596 87.3028 86.5596C89.2558 86.5596 94.6222 84.7902 96.8171 83.3881C99.8049 81.5575 100.172 76.9227 97.5488 74.2992C95.4763 72.2268 92.7304 71.9819 88.4018 73.5064Z" fill="white"/>
<path d="M114.69 73.7509C113.472 74.5438 112.556 75.704 112.067 77.3509C111.457 79.4234 111.519 80.0357 112.495 81.6826C113.897 84.0612 120.669 87.7837 123.595 87.7837C126.464 87.7837 129.207 84.9765 129.207 81.9887C129.207 78.9397 127.743 76.9866 123.779 75.0366C119.022 72.6519 117.01 72.3488 114.69 73.7509Z" fill="white"/>
<path d="M65.9549 91.1329C63.8212 92.0482 60.0987 96.7442 59.061 99.7932C58.0844 102.539 59.5477 105.833 62.2936 106.99C65.7712 108.453 68.0886 107.358 71.6274 102.781C75.2887 97.9626 75.105 93.0829 71.1407 91.0686C69.1264 90.037 68.4559 90.037 65.9549 91.1329Z" fill="white"/>
<path d="M137.263 94.7944C133.663 97.8434 134.395 102.298 139.519 107.848C141.533 109.981 142.204 110.349 144.338 110.349C148.179 110.349 150.255 108.276 150.255 104.431C150.255 101.93 149.888 101.015 147.632 98.0271C146.229 96.074 144.521 94.2464 143.909 93.8791C141.837 92.8413 139.152 93.2087 137.263 94.7944Z" fill="white"/>
<path d="M49.4293 118.277C47.3537 119.556 44.9751 124.011 44.1823 128.097C43.3282 132.732 48.0854 136.393 52.6007 134.501C54.2477 133.831 55.1018 132.793 56.565 129.622C59.614 123.34 59.1273 119.618 55.1018 117.909C52.3558 116.814 51.8079 116.814 49.4293 118.277Z" fill="white"/>
<path d="M154.95 120.108C154.219 120.414 153.12 121.632 152.572 122.792C151.779 124.562 151.718 125.355 152.265 127.247C153.181 130.418 158.305 135.665 160.926 136.152C163.672 136.761 166.415 135.053 167.575 132.126C168.674 129.2 167.881 127.185 163.733 122.792C161.048 119.985 160.255 119.499 158.486 119.56C157.329 119.56 155.743 119.802 154.95 120.108Z" fill="white"/>
<path d="M222.104 132.307C219.848 133.648 218.871 135.234 218.871 137.493C218.871 139.872 219.603 140.971 227.838 150.485C234.364 158.049 235.279 159.39 234.609 160.244C234.18 160.792 230.948 164.515 227.473 168.54C219.97 177.262 218.874 178.97 218.874 181.471C218.874 184.397 221.743 187.205 224.792 187.205C227.718 187.205 228.756 186.351 236.623 177.139C240.04 173.114 243.027 169.636 243.272 169.333C243.456 169.088 246.383 172.079 249.738 176.043C258.459 186.351 259.436 187.205 262.304 187.205C267.429 187.205 270.11 181.226 266.939 177.081C265.476 175.189 255.594 163.541 253.276 160.979L251.874 159.454L258.949 151.22C262.791 146.707 266.513 142.131 267.122 141.154C269.93 136.703 267.49 131.701 262.488 131.701C259.194 131.701 258.462 132.31 250.595 141.705C247.056 145.914 244.007 149.331 243.762 149.331C243.578 149.392 240.223 145.67 236.32 141.157C232.417 136.645 228.756 132.739 228.147 132.436C225.765 131.147 223.996 131.147 222.104 132.307Z" fill="#E10856"/>
<path d="M177.519 141.883C175.324 142.982 174.348 144.751 174.348 147.678C174.348 149.995 177.519 153.228 181.851 155.361C184.229 156.522 185.206 156.702 186.975 156.277C189.844 155.606 191.671 153.167 191.549 150.24C191.426 147.616 190.086 145.97 185.938 143.285C182.276 140.906 180.081 140.542 177.519 141.883Z" fill="white"/>
<path d="M206.854 154.327C203.013 155.426 201.182 160.183 203.377 163.293C204.963 165.55 207.586 166.526 212.588 166.587C217.039 166.71 217.284 166.649 218.931 164.757C222.347 160.976 220.394 155.362 215.515 154.63C211.002 153.898 208.685 153.837 206.854 154.327Z" fill="white"/>
</svg>
