<svg width="257" height="265" viewBox="0 0 257 265" fill="none" xmlns="http://www.w3.org/2000/svg">
<path fill-rule="evenodd" clip-rule="evenodd" d="M38.1221 143.808C37.7334 138.35 37.5 132.723 37.5 126.881H56.25C56.25 134.408 56.6736 141.614 57.3398 148.676C57.7641 153.173 54.9206 157.334 50.5761 158.572C46.5734 159.713 43.75 163.31 43.75 167.506C43.75 172.605 47.8181 176.752 52.8863 176.878C52.9012 176.876 52.9176 176.874 52.9358 176.872L52.9506 176.87C53.0133 176.861 53.1005 176.85 53.19 176.838C53.3853 176.813 53.6703 176.777 53.9977 176.749C58.448 176.357 62.5561 179.161 63.8143 183.447C75.9507 224.797 100.146 245.631 125 245.631C149.854 245.631 174.049 224.797 186.186 183.447C187.444 179.161 191.552 176.357 196.002 176.749C196.33 176.777 196.615 176.813 196.81 176.838C196.861 176.845 196.911 176.851 196.957 176.857C196.998 176.863 197.034 176.868 197.064 176.872C197.082 176.874 197.099 176.876 197.114 176.878C202.182 176.752 206.25 172.605 206.25 167.506C206.25 163.31 203.427 159.713 199.424 158.572C195.079 157.334 192.236 153.173 192.66 148.676C193.326 141.614 193.75 134.408 193.75 126.881H212.5C212.5 132.723 212.267 138.35 211.878 143.808C219.721 148.75 225 157.449 225 167.506C225 181.235 215.165 192.665 202.157 195.136C188.135 236.666 160.131 264.381 125 264.381C89.8692 264.381 61.8651 236.666 47.8434 195.136C34.8345 192.665 25 181.235 25 167.506C25 157.449 30.2786 148.75 38.1221 143.808ZM52.7179 176.9C52.718 176.9 52.7227 176.899 52.7318 176.898C52.7224 176.899 52.7179 176.9 52.7179 176.9Z" fill="white"/>
<path fill-rule="evenodd" clip-rule="evenodd" d="M37.5 135.125C37.5 129.947 41.6973 125.75 46.875 125.75H203.125C208.303 125.75 212.5 129.947 212.5 135.125C212.5 140.303 208.303 144.5 203.125 144.5H46.875C41.6973 144.5 37.5 140.303 37.5 135.125Z" fill="#E10856"/>
<path fill-rule="evenodd" clip-rule="evenodd" d="M84.375 94.5C89.5527 94.5 93.75 98.6973 93.75 103.875V135.125C93.75 140.303 89.5527 144.5 84.375 144.5C79.1973 144.5 75 140.303 75 135.125V103.875C75 98.6973 79.1973 94.5 84.375 94.5Z" fill="#E10856"/>
<path fill-rule="evenodd" clip-rule="evenodd" d="M165.625 94.5C170.803 94.5 175 98.6973 175 103.875V135.125C175 140.303 170.803 144.5 165.625 144.5C160.447 144.5 156.25 140.303 156.25 135.125V103.875C156.25 98.6973 160.447 94.5 165.625 94.5Z" fill="#E10856"/>
<path fill-rule="evenodd" clip-rule="evenodd" d="M124.744 107C102.984 107 81.326 110.035 60.4009 116.014L56.25 117.199V135.125C56.25 140.303 52.0527 144.5 46.875 144.5C41.6973 144.5 37.5 140.303 37.5 135.125V110.125C37.5 105.938 40.2762 102.259 44.3022 101.11L55.2491 97.9858C55.2496 97.9857 55.2501 97.9855 55.2505 97.9854C55.2511 97.9853 55.2517 97.9851 55.2522 97.9849C77.8511 91.5275 101.242 88.25 124.744 88.25H126.1C153.288 88.25 180.302 92.631 206.097 101.231C209.924 102.508 212.506 106.09 212.506 110.125V135.125C212.506 140.303 208.309 144.5 203.131 144.5C197.954 144.5 193.756 140.303 193.756 135.125V116.983C171.827 110.366 149.031 107 126.1 107H124.744Z" fill="#E10856"/>
<path fill-rule="evenodd" clip-rule="evenodd" d="M118.772 3.11808C122.065 0.191102 126.951 -0.0481589 130.514 2.54314L159.872 23.894L185.802 8.33604C188.24 6.87301 191.211 6.59578 193.878 7.58237C196.545 8.56895 198.62 10.7127 199.519 13.4104L209.882 44.5H246.875C250.175 44.5 253.232 46.2348 254.924 49.0677C256.616 51.9006 256.694 55.4144 255.13 58.3197L235.398 94.9633L242.992 112.682C244.364 115.882 243.849 119.578 241.655 122.282C239.462 124.985 235.95 126.251 232.537 125.568L201.287 119.318C196.209 118.303 192.917 113.364 193.932 108.286C194.948 103.209 199.887 99.9167 204.964 100.932L218.738 103.687L216.383 98.193C215.258 95.5669 215.391 92.571 216.746 90.0554L231.179 63.25H203.125C199.09 63.25 195.507 60.6679 194.231 56.8397L185.427 30.427L164.199 43.164C160.973 45.0993 156.903 44.9194 153.861 42.7069L125.589 22.1452L103.104 42.132C100.041 44.8543 95.5653 45.2722 92.0517 43.164L70.8232 30.427L62.019 56.8397C60.7429 60.6679 57.1604 63.25 53.1251 63.25H29.1586L44.756 82.3134C47.189 85.2871 47.5612 89.4443 45.6953 92.8029L40.564 102.039L44.6013 101.03C49.6244 99.7742 54.7144 102.828 55.9702 107.851C57.226 112.874 54.172 117.964 49.1489 119.22L24.1489 125.47C20.5253 126.376 16.7098 125.045 14.4365 122.081C12.1632 119.117 11.866 115.087 13.6799 111.822L26.214 89.2608L2.11925 59.8116C-0.17459 57.0081 -0.648023 53.1338 0.903199 49.8604C2.45442 46.5869 5.7527 44.5 9.3751 44.5H46.368L56.7312 13.4104C57.6304 10.7127 59.7055 8.56895 62.3725 7.58237C65.0395 6.59578 68.0101 6.87301 70.4485 8.33604L95.7936 23.5431L118.772 3.11808Z" fill="#E10856"/>
<path fill-rule="evenodd" clip-rule="evenodd" d="M86.5123 193.432C88.8278 198.064 86.9507 203.695 82.3197 206.01L69.8197 212.26C65.1886 214.576 59.5573 212.699 57.2418 208.068C54.9263 203.437 56.8034 197.805 61.4344 195.49L73.9344 189.24C78.5655 186.924 84.1968 188.801 86.5123 193.432Z" fill="white"/>
<path fill-rule="evenodd" clip-rule="evenodd" d="M99.0123 218.432C101.328 223.064 99.4507 228.695 94.8197 231.01L82.3197 237.26C77.6886 239.576 72.0573 237.699 69.7418 233.068C67.4263 228.437 69.3034 222.805 73.9344 220.49L86.4344 214.24C91.0655 211.924 96.6968 213.801 99.0123 218.432Z" fill="white"/>
<path fill-rule="evenodd" clip-rule="evenodd" d="M150.992 218.432C153.307 213.801 158.939 211.924 163.57 214.24L176.07 220.49C180.701 222.805 182.578 228.437 180.262 233.068C177.947 237.699 172.315 239.576 167.684 237.26L155.184 231.01C150.553 228.695 148.676 223.064 150.992 218.432Z" fill="white"/>
<path fill-rule="evenodd" clip-rule="evenodd" d="M163.492 193.432C165.807 188.801 171.439 186.924 176.07 189.24L188.57 195.49C193.201 197.805 195.078 203.437 192.762 208.068C190.447 212.699 184.815 214.576 180.184 212.26L167.684 206.01C163.053 203.695 161.176 198.064 163.492 193.432Z" fill="white"/>
<path d="M87.5 182C94.4036 182 100 176.404 100 169.5C100 162.596 94.4036 157 87.5 157C80.5964 157 75 162.596 75 169.5C75 176.404 80.5964 182 87.5 182Z" fill="white"/>
<path d="M162.5 182C169.404 182 175 176.404 175 169.5C175 162.596 169.404 157 162.5 157C155.596 157 150 162.596 150 169.5C150 176.404 155.596 182 162.5 182Z" fill="white"/>
</svg>
