<svg width="300" height="352" viewBox="0 0 300 352" fill="none" xmlns="http://www.w3.org/2000/svg">
<path d="M118.918 0.987983C80.0098 4.71797 50.6079 13.8617 26.9141 29.5858C18.6499 35.0712 7.16918 46.0422 2.70684 52.6227L0 56.7188L0.804154 78.9515C1.53651 101.26 2.85044 118.007 4.90032 133.731C13.6024 199.991 33.4981 252.358 65.0181 292.433C71.4549 300.625 88.2021 317.52 95.5903 323.368C109.706 334.411 127.624 344.506 141.664 349.183L149.562 351.815L154.9 350.278C166.309 346.915 180.791 339.602 194.246 330.239C231.18 304.574 260.726 262.008 278.133 209.422C290.932 170.736 297.44 130.583 299.196 78.9515L300 56.7188L297.293 52.6227C293.272 46.4802 280.765 34.4861 272.939 29.2196C250.121 14.0053 218.967 4.49898 181.082 0.987983C166.528 -0.329538 132.815 -0.329538 118.918 0.987983ZM182.547 15.9797C216.993 19.6379 243.469 27.8267 263.07 40.7003C271.7 46.4048 277.843 51.5959 281.501 56.4244L284.57 60.3734V70.9064C284.57 89.3373 282.377 117.494 279.379 138.484C266.068 231.292 225.332 300.331 166.823 329.295C161.775 331.779 155.78 334.414 153.511 335.071L149.415 336.389L142.612 333.757C126.303 327.468 109.555 316.644 95.1488 303.113C60.1896 270.129 36.5675 222.59 24.279 160.426C19.0125 133.806 15.4297 97.6769 15.4297 70.7628V60.0108L18.8689 56.1336C38.4702 34.2671 74.5961 19.8569 119.284 15.9834C124.332 15.6172 129.598 15.1074 130.987 14.9602C135.812 14.3715 175.23 15.1756 182.547 15.9797Z" fill="white"/>
<path d="M88.4926 106.158C79.2771 109.302 68.2343 117.276 58.2147 128.024L52.582 134.095L63.4776 134.314C75.7625 134.608 90.6107 133.581 106.116 131.463C121.474 129.342 134.638 127.001 134.638 126.344C134.638 125.759 125.789 117.861 121.108 114.203C116.864 110.911 109.261 106.962 104.726 105.648C99.2446 104.036 94.197 104.183 88.4926 106.158Z" fill="white"/>
<path d="M194.471 105.867C189.789 107.403 183.281 110.839 178.894 114.203C174.288 117.785 165.363 125.759 165.363 126.344C165.363 127.001 178.528 129.342 193.886 131.463C209.391 133.585 224.235 134.608 236.524 134.314L247.419 134.095L241.787 128.024C228.037 113.323 213.193 104.402 202.369 104.549C200.322 104.549 196.74 105.134 194.471 105.867Z" fill="white"/>
<path d="M217.649 181.048C197.391 187.118 172.598 192.385 157.897 193.699C142.026 195.088 121.915 191.943 89.5156 183.022C75.547 179.22 72.4022 178.998 69.9143 181.705C67.3546 184.483 67.5018 188.432 70.5713 196.772C84.5399 235.242 104.798 261.79 127.691 271.881C140.928 277.733 159.068 277.733 172.304 271.881C189.051 264.493 205.07 247.599 217.136 224.562C224.599 210.374 231.912 191.947 231.912 187.484C231.912 180.172 227.306 178.122 217.649 181.048ZM100.268 201.306C120.088 206.353 137.639 209.057 150 209.057C164.187 209.057 188.394 204.813 211.288 198.38L212.968 197.867L211.797 200.721C211.14 202.329 209.898 205.183 209.091 207.229C204.118 219.809 191.83 238.311 182.762 246.87C176.91 252.355 168.136 257.841 162.137 259.668C154.972 261.933 145.024 261.933 137.855 259.668C131.859 257.841 123.082 252.355 117.23 246.87C108.162 238.311 95.8734 219.809 90.9013 207.229C90.0972 205.183 88.8514 202.329 88.1945 200.721L87.0241 197.867L88.7078 198.38C89.6628 198.603 94.8575 199.992 100.268 201.306Z" fill="#E10856"/>
</svg>
