<svg width="300" height="234" viewBox="0 0 300 234" fill="none" xmlns="http://www.w3.org/2000/svg">
<path d="M64.7514 1.43559C64.0932 1.79375 61.1605 4.4295 58.1666 7.30096L52.7788 12.5694L46.194 12.8694C38.6511 13.1694 36.3766 14.0082 32.3051 17.9572C26.8009 23.2869 22.7295 32.5625 17.9998 50.281C16.5029 56.027 16.2029 56.627 14.2283 57.8821C13.0314 58.6597 10.5763 59.7373 8.78236 60.2179C0.281241 62.673 -1.99327 67.2833 1.72003 74.5262C4.94966 80.8722 12.1344 85.4794 20.2162 86.3794C29.0142 87.3957 30.453 89.1345 30.3918 99.1296C30.3306 109.066 30.3918 108.828 21.4713 129.479C13.512 147.794 8.60175 163.897 6.9854 176.889C5.90784 185.09 6.50784 198.917 8.12419 205.441C11.6569 219.33 19.6774 229.386 29.7336 232.438C33.5051 233.577 35.1214 233.635 61.5187 233.455L89.2935 233.274L93.065 231.238C101.447 226.689 108.987 216.214 111.742 205.138C114.316 195.02 117.068 175.389 120.001 146.175L120.42 141.684L139.875 141.384C158.013 141.026 159.568 140.965 162.862 139.71C174.473 135.399 183.155 126.24 187.943 113.251C188.959 110.496 189.259 108.044 189.498 98.2846L189.859 86.6182L230.984 86.3182L272.048 86.0182L273.603 84.5825C274.68 83.5661 275.997 80.5722 277.974 74.5262L280.846 65.9669L288.986 60.521C293.476 57.527 297.784 54.4168 298.564 53.578L300 52.0811V34.4819V16.8827L298.025 14.9664L296.109 12.9918L286.95 12.8112L277.852 12.5724L275.038 9.93976C271.745 6.88768 270.428 6.4683 264.863 6.82647C260.853 7.12647 260.553 7.24585 257.859 9.93976L255.045 12.6949H168.369H81.6312L75.4658 6.71013C69.0616 0.477405 67.6841 -0.18076 64.7514 1.43559ZM76.8433 24.242C78.5791 25.2001 86.2414 25.2583 168.311 25.2583C267.499 25.2583 259.717 25.5583 263.788 21.3674C266.182 18.9123 266.782 18.7929 268.337 20.5287C268.937 21.2481 270.554 22.6226 271.809 23.5226C274.022 25.2001 274.383 25.2583 280.968 25.2583H287.734V35.9727V46.629L280.31 51.5362C276.238 54.2301 272.289 57.1627 271.512 57.9403C270.673 58.8373 269.057 62.5506 267.621 66.7384L265.166 74.0425L204.467 74.3425L143.769 74.6425L139.578 76.0783C127.905 80.0304 119.943 86.6733 114.436 97.1489C111.503 102.776 110.725 106.486 109.648 120.733C106.835 158.325 103.782 184.603 100.55 199.45C98.9946 206.812 95.7007 213.039 91.1517 217.288C88.6384 219.624 86.5414 221.06 85.2863 221.298C84.2087 221.537 72.1168 221.598 58.4697 221.479L33.6275 221.298L30.8142 219.682C26.0264 216.869 22.3131 210.942 20.0386 202.563C18.3641 196.337 18.2417 181.912 19.7998 174.011C22.4325 160.541 26.3846 148.75 33.7469 131.87C40.3899 116.726 41.5287 113.254 42.3062 106.847C44.7001 86.0151 38.8929 76.1977 23.3295 74.4038C20.158 74.1038 17.7029 73.4456 16.4447 72.668L14.4702 71.4098L16.8641 70.3935C24.3458 67.2802 27.1591 63.57 29.9724 52.9137C33.7439 38.7279 37.0347 30.7655 40.6286 27.1134L42.4256 25.2583H49.0104C53.2594 25.2583 56.1921 24.9583 57.4503 24.4195C58.5278 23.942 61.1023 21.845 63.1962 19.6317L67.0871 15.7408L70.978 19.5123C73.1913 21.6093 75.7658 23.7032 76.8433 24.242ZM177.589 95.7163C177.589 103.917 177.351 105.714 176.212 109.125C173.34 117.626 168.072 123.791 160.829 127.263L156.938 129.118L139.1 129.298L121.262 129.479L121.62 124.51C122.04 118.584 122.459 115.651 122.879 115.651C122.998 115.651 124.434 116.309 125.992 117.087C130.899 119.6 135.571 120.678 141.675 120.678C146.404 120.739 147.782 120.497 149.756 119.42C154.425 116.906 157.238 112.596 157.238 107.866C157.238 102.898 155.025 100.023 148.379 96.4938C145.088 94.7581 141.675 90.8672 141.675 88.9509C141.675 88.2927 144.846 87.3958 149.456 86.6764C150.295 86.557 156.938 86.4376 164.3 86.3763L177.589 86.3151V95.7163ZM132.035 97.5132C133.651 100.685 137.542 104.576 141.252 106.672L144.366 108.469H141.313C137.661 108.469 132.693 107.092 129.283 105.056C125.272 102.72 125.211 102.482 127.966 98.7102C129.283 96.7938 130.48 95.2969 130.599 95.2969C130.777 95.2969 131.377 96.3163 132.035 97.5132Z" fill="white"/>
</svg>
