<svg width="300" height="308" viewBox="0 0 300 308" fill="none" xmlns="http://www.w3.org/2000/svg">
<path d="M107.021 0.346771C106.062 0.484696 102.983 0.961155 100.178 1.3718C76.2258 4.79485 52.4807 16.9072 34.4815 34.8343C16.3475 52.9715 4.98745 75.5536 0.881038 101.559C-0.281922 108.881 -0.281922 128.796 0.812075 136.118C4.78056 161.164 15.5262 182.994 32.77 200.993C48.8508 217.83 67.5334 228.71 89.7738 234.252C100.313 236.92 106.541 237.606 118.653 237.606C130.766 237.606 136.994 236.923 147.533 234.252C160.194 231.105 171.278 226.381 182.024 219.607L188.729 215.432L234.58 261.282L280.496 307.196L290.283 297.478L300 287.692L254.491 242.186L208.985 196.677L213.091 191.27C225.408 175.258 233.141 156.986 236.426 136.457C237.589 129.134 237.658 108.537 236.426 101.214C227.119 42.3638 176.958 -0.54347 118.243 0.00509644C112.973 0.0709244 107.977 0.208846 107.021 0.346771ZM134.393 15.0578C167.582 19.9165 197.625 41.7463 212.474 71.7889C216.442 79.9327 221.166 92.7284 220.414 93.4807C220.276 93.5497 217.95 92.1109 215.145 90.1956C189.757 73.1556 165.257 62.8237 139.527 58.3067C130.082 56.6641 107.431 56.6641 97.7829 58.3756C73.1476 62.551 47.7599 73.1556 23.6011 89.3085C20.0432 91.7034 16.9619 93.5497 16.8271 93.4149C16.6891 93.208 17.7173 89.7881 19.084 85.6817C30.7857 51.3979 57.6811 26.4209 92.6483 17.1799C97.3691 15.948 105.309 14.6471 112.152 14.0327C116.055 13.691 129.123 14.2365 134.393 15.0578ZM134.393 70.0115C143.016 71.1745 148.9 72.4754 157.865 75.2809C164.504 77.3341 164.573 77.3341 167.651 81.5753C179.629 97.794 182.776 119.486 175.864 138.51C170.184 154.115 155.881 168.691 140.552 174.506C134.668 176.762 125.017 178.543 118.653 178.543C92.99 178.543 69.3139 161.503 61.101 137.209C54.7377 118.254 58.0228 97.1076 69.7245 81.5063C72.8717 77.331 72.9407 77.262 79.5109 75.2119C98.1935 69.463 116.873 67.6825 134.393 70.0115ZM52.2738 87.1863C52.2738 87.4591 51.7942 88.4872 51.2488 89.5812C49.3335 93.277 46.8697 103.267 46.1174 110.386C42.3526 145.08 64.5931 177.929 98.4004 187.715C107.503 190.383 117.218 191.273 125.841 190.248C143.496 188.191 158.276 181.214 170.25 169.236C190.713 148.845 197.076 118.734 186.81 91.4276C185.851 88.8947 185.306 86.8415 185.579 86.8415C187.29 86.8415 204.603 97.584 215.687 105.524L223.351 111.066L223.489 114.144C224.652 144.187 214.044 171.628 193.105 192.771C178.46 207.554 160.736 217.203 140.138 221.651C129.669 223.908 112.56 224.253 101.817 222.472C71.4329 217.272 46.1142 200.435 29.4848 174.295C20.247 159.795 14.2253 140.153 13.9526 123.799C13.6799 109.841 13.8147 108.743 15.5262 108.743C16.3475 108.743 20.7266 106.142 25.2436 102.925C32.9079 97.5182 50.5623 86.8447 51.7284 86.8447C52.0011 86.8447 52.2738 86.9826 52.2738 87.1863Z" fill="white"/>
<path d="M109.415 88.6912C101.067 91.7036 94.7697 97.3836 91.0739 105.183C89.0207 109.496 88.8828 110.179 88.8828 117.637C88.8828 125.097 89.0207 125.781 91.0739 130.16C100.312 149.664 125.837 153.974 140.482 138.507C154.717 123.452 150.404 99.6375 131.793 90.3996C127.003 88.0737 126.113 87.8668 119.75 87.6631C114.477 87.5283 112.013 87.8041 109.415 88.6912Z" fill="#E10856"/>
</svg>
