<svg width="300" height="269" viewBox="0 0 300 269" fill="none" xmlns="http://www.w3.org/2000/svg">
<path d="M52.4939 0.767681C33.2663 4.49013 17.8224 16.9432 10.5 34.7044C7.63163 41.6626 6.34898 48.134 6.34898 56.0687C6.34898 71.3289 11.6602 84.4524 22.402 95.5616L26.6724 99.8932L20.0204 100.138C14.5867 100.261 12.9398 100.567 10.6806 101.724C6.83571 103.738 3.05204 107.583 1.40204 111.244L0 114.357V184.245V254.133L1.58571 257.491C3.47755 261.52 6.77449 264.878 10.6194 266.77L13.4265 268.175L118.044 268.359L222.661 268.481L226.081 266.953C230.596 264.878 233.222 262.254 235.359 257.797L237.129 254.136V239.607V225.14H244.148H251.106L253.365 227.093C254.587 228.192 257.881 231.853 260.691 235.273C266.795 242.718 270.823 246.443 274.791 248.396C277.537 249.679 278.452 249.801 288.707 249.863H299.694L299.878 187.42L300 124.977L289.197 125.161C279.187 125.344 278.088 125.467 275.587 126.746C272.167 128.577 268.261 132.18 260.939 140.237C257.826 143.718 254.103 147.379 252.759 148.355C250.378 150.064 250.136 150.125 243.909 149.941L237.441 149.757L237.135 131.445L236.829 113.133L234.995 109.842C232.736 105.814 229.381 102.823 225.107 101.237C222.361 100.199 220.347 100.016 212.96 100.016H204.049L208.322 95.7422C230.602 73.4626 230.173 37.5116 207.468 15.7218C202.28 10.7779 198.921 8.5187 192.453 5.40544C169.503 -5.5813 141.732 0.584023 125.434 20.2371C123.419 22.6799 120.367 27.4401 118.598 30.8565L115.423 37.1442L113.47 32.9932C107.734 20.6014 98.5775 11.3258 86.3082 5.40544C83.501 4.06156 78.9827 2.41463 76.298 1.683C70.0714 0.0360608 58.5337 -0.392523 52.4939 0.767681ZM74.5867 14.2585C86.1214 17.6167 96.0122 25.9157 101.382 36.8412C116.703 67.8483 91.6775 103.313 57.251 99.4034C47.0571 98.2432 39.4898 94.5208 31.6776 86.8891C26.1857 81.4555 23.0112 76.3891 20.5684 69.0055C19.2245 64.9157 18.9827 63.2687 18.9827 56.0656C18.9827 48.4371 19.1663 47.3993 20.8745 42.5167C24.9643 30.7983 32.2286 22.435 43.3347 16.8208C52.1265 12.3636 64.5765 11.3871 74.5867 14.2585ZM182.868 14.9289C189.217 17.0657 195.441 21.1554 200.507 26.5248C215.097 42.0299 216.07 66.5044 202.889 83.1055C193.307 95.1299 178.717 101.173 163.457 99.4034C154.056 98.3657 146.305 94.7657 139.102 88.233C116.761 67.784 121.586 31.5299 148.564 17.3687C158.819 11.9993 171.272 11.1452 182.868 14.9289ZM117.132 78.6514C118.962 83.3504 123.661 90.3697 128.424 95.2524L132.94 100.016H115.362H97.7847L101.874 95.9259C106.635 91.1657 111.031 84.8167 113.532 79.0799C114.508 76.882 115.485 75.235 115.73 75.4799C115.91 75.7218 116.581 77.1269 117.132 78.6514ZM220.956 113.078C225.168 114.847 224.923 110.393 224.923 184.187C224.923 225.936 224.679 251.268 224.314 252.244C224.008 253.098 222.848 254.381 221.752 255.051C219.738 256.273 218.822 256.273 117.928 256.15L16.0561 255.967L14.2867 253.952L12.5173 251.999V184.31V116.678L13.8 115.031C14.5316 114.116 15.6918 113.078 16.4235 112.833C17.0939 112.527 62.9939 112.285 118.295 112.285C203.865 112.224 219.187 112.343 220.956 113.078ZM287.183 187.297V237.348H283.644C280.469 237.348 279.799 237.103 277.54 235.212C276.196 233.99 272.718 230.206 269.911 226.787C263.868 219.462 260.207 215.984 256.543 214.092C254.284 212.871 252.759 212.626 245.556 212.445L237.132 212.2V187.236V162.272H245.128C257.152 162.272 258.129 161.663 275.097 143.473C280.102 138.1 281.323 137.369 284.923 137.307L287.183 137.246V187.297V187.297Z" fill="white"/>
</svg>
