<svg width="300" height="352" viewBox="0 0 300 352" fill="none" xmlns="http://www.w3.org/2000/svg">
<path d="M118.918 0.98802C80.0098 4.71801 50.6079 13.8617 26.9141 29.5858C18.6499 35.0713 7.16918 46.0423 2.70684 52.6227L0 56.7188L0.804154 78.9516C1.53651 101.26 2.85044 118.007 4.90032 133.731C13.6024 199.991 33.4981 252.358 65.0181 292.433C71.4549 300.625 88.2021 317.52 95.5903 323.368C109.706 334.411 127.624 344.506 141.664 349.183L149.562 351.815L154.9 350.278C166.309 346.915 180.791 339.602 194.246 330.239C231.18 304.574 260.726 262.008 278.133 209.422C290.932 170.737 297.44 130.583 299.196 78.9516L300 56.7188L297.293 52.6227C293.272 46.4802 280.765 34.4861 272.939 29.2196C250.121 14.0053 218.967 4.49902 181.082 0.98802C166.528 -0.329502 132.815 -0.329502 118.918 0.98802ZM182.547 15.9798C216.993 19.638 243.469 27.8267 263.07 40.7004C271.7 46.4048 277.843 51.5959 281.501 56.4245L284.57 60.3734V70.9064C284.57 89.3374 282.377 117.494 279.379 138.484C266.068 231.292 225.332 300.331 166.823 329.295C161.775 331.779 155.78 334.414 153.511 335.071L149.415 336.389L142.612 333.757C126.303 327.468 109.555 316.644 95.1488 303.113C60.1896 270.129 36.5675 222.59 24.279 160.426C19.0125 133.806 15.4297 97.6769 15.4297 70.7628V60.0109L18.8689 56.1337C38.4702 34.2671 74.5961 19.857 119.284 15.9834C124.332 15.6172 129.598 15.1074 130.987 14.9603C135.812 14.3715 175.23 15.1756 182.547 15.9798Z" fill="white"/>
<path d="M124.769 120.344C123.965 120.563 118.845 122.171 113.288 123.927C99.9045 128.242 88.0576 133.361 79.3519 138.553C71.3068 143.306 60.7773 150.913 60.7773 151.936C60.7773 152.816 74.8177 159.615 81.6208 161.884C85.6415 163.273 89.5941 164.005 94.2 164.296C100.49 164.591 101.222 164.515 105.171 162.613C111.461 159.54 116.946 153.544 120.967 145.352C124.259 138.696 128.061 126.189 128.061 121.949C128.057 119.834 127.695 119.615 124.769 120.344Z" fill="white"/>
<path d="M171.941 121.881C171.941 126.196 175.671 138.628 179.035 145.359C183.056 153.552 188.541 159.547 194.831 162.62C198.78 164.523 199.512 164.594 205.802 164.304C210.408 164.013 214.357 163.281 218.381 161.891C225.184 159.626 239.225 152.823 239.225 151.943C239.225 150.92 228.692 143.313 220.65 138.56C216.701 136.219 209.679 132.636 205.073 130.734C197.175 127.37 179.549 121.371 174.357 120.201C172.089 119.759 171.941 119.835 171.941 121.881Z" fill="white"/>
<path d="M132.447 218.2C122.793 219.808 115.481 222.149 106.484 226.539C93.3196 232.976 82.7148 241.75 82.7148 246.14C82.7148 250.237 86.0787 253.6 90.1748 253.672C92.2965 253.672 93.6858 252.94 97.1214 250.161C106.994 241.969 115.919 237.435 128.422 234.218C135.811 232.244 137.491 232.096 149.998 232.096C162.506 232.096 164.186 232.244 171.574 234.218C184.081 237.435 193.003 241.969 202.875 250.161C207.337 253.819 210.482 254.624 213.699 252.94C215.382 251.988 217.282 248.477 217.282 246.137C217.282 241.75 206.605 232.972 193.512 226.536C179.106 219.514 167.55 217.029 149.266 217.173C143.052 217.248 135.444 217.69 132.447 218.2Z" fill="#E10856"/>
</svg>
