<svg width="375" height="324" viewBox="0 0 375 324" fill="none" xmlns="http://www.w3.org/2000/svg">
<path fill-rule="evenodd" clip-rule="evenodd" d="M67.0312 195.627V218.745L12.9959 237.033C10.784 237.955 10 239.398 10 240.939V287.814H0V240.939C0 234.694 3.87734 229.91 9.39305 227.703L9.51877 227.653L57.0312 211.572V195.627H67.0312Z" fill="white"/>
<path fill-rule="evenodd" clip-rule="evenodd" d="M110.77 211.519V195.627H100.77V218.797L155.014 236.322L158.088 226.807L110.77 211.519Z" fill="white"/>
<path fill-rule="evenodd" clip-rule="evenodd" d="M123.282 176.968L124.842 131.736L114.848 131.391L113.283 176.79V176.876C113.283 180.94 110.71 184.931 106.427 187.378L106.277 187.464L88.6437 199.22H79.1715L61.5378 187.464L61.3883 187.378C57.5492 185.185 55.1602 181.297 54.512 176.396L52.9597 152.335L42.9805 152.979L44.5526 177.347L44.5712 177.496C45.5058 184.973 49.3076 191.921 56.269 195.97L76.1437 209.22H91.6715L111.545 195.97C118.101 192.163 123.245 185.296 123.282 176.968Z" fill="white"/>
<path fill-rule="evenodd" clip-rule="evenodd" d="M57.5547 218.503L64.9876 211.813L77.5605 225.783H90.2943L102.867 211.813L110.3 218.503L94.748 235.783H73.1068L57.5547 218.503Z" fill="white"/>
<path fill-rule="evenodd" clip-rule="evenodd" d="M53.7533 96.7345C53.6569 98.5974 52.7493 100.077 51.809 101.017C50.8143 102.012 49.216 102.97 47.1992 102.97C45.9884 102.97 44.598 103.001 43.4093 103.397C42.8659 103.578 42.5317 103.786 42.3308 103.97C42.2368 104.056 42.1366 104.166 42.043 104.334V135.939H43.7617V123.751C43.7617 116.303 49.9065 110.158 57.3555 110.158H122.98C129.594 110.158 134.387 105.365 134.387 98.7515V86.564H65.168C59.1374 86.564 54.3504 90.8459 53.7533 96.7345ZM139.387 81.564H144.387V98.7515C144.387 110.888 135.117 120.158 122.98 120.158H57.3555C55.4294 120.158 53.7617 121.825 53.7617 123.751V139.376C53.7617 141.393 52.8037 142.992 51.809 143.986C50.8143 144.981 49.216 145.939 47.1992 145.939H38.6055C36.5887 145.939 34.9904 144.981 33.9957 143.986C33.001 142.992 32.043 141.393 32.043 139.376V102.739L32.2353 102.065C33.6001 97.2887 37.1408 94.9458 40.247 93.9104C41.6416 93.4455 43.0348 93.2103 44.2326 93.0913C46.43 83.3611 55.0225 76.564 65.168 76.564H139.387V81.564Z" fill="white"/>
<path fill-rule="evenodd" clip-rule="evenodd" d="M187.336 255V278.892L147.032 292.612L146.83 292.663C146.527 292.739 146.359 292.827 146.279 292.879C146.203 292.928 146.169 292.967 146.145 292.999C146.108 293.05 145.93 293.326 145.93 294.062V323.75H135.93V294.062C135.93 291.673 136.532 289.215 138.058 287.117C139.565 285.045 141.714 283.683 144.179 283.02L177.336 271.732V255H187.336Z" fill="white"/>
<path fill-rule="evenodd" clip-rule="evenodd" d="M218.566 271.732V255H208.566V278.892L248.871 292.612L249.072 292.663C249.376 292.739 249.543 292.827 249.623 292.879C249.699 292.928 249.734 292.967 249.757 292.999C249.794 293.05 249.973 293.326 249.973 294.062V323.75H259.973V294.062C259.973 291.673 259.37 289.215 257.844 287.117C256.337 285.045 254.188 283.683 251.723 283.02L218.566 271.732Z" fill="white"/>
<path fill-rule="evenodd" clip-rule="evenodd" d="M165.598 208.125C165.598 190.519 180.336 175.781 197.941 175.781C215.453 175.781 230.285 189.645 230.285 208.125V208.303L227.906 241.608L227.844 241.918C226.826 247.009 223.761 252.206 218.501 255.369L203.254 264.687H191.777L177.625 255.529C172.327 253.197 168.025 247.807 167.943 241.132L165.598 208.303V208.125ZM175.598 207.956L177.941 240.759V240.937C177.941 243.341 179.59 245.555 181.83 246.451L182.281 246.631L194.73 254.687H200.441L213.32 246.816L213.338 246.806C215.792 245.333 217.383 242.85 217.979 240.236L220.285 207.955C220.195 195.269 210.063 185.781 197.941 185.781C185.915 185.781 175.693 195.947 175.598 207.956Z" fill="white"/>
<path fill-rule="evenodd" clip-rule="evenodd" d="M177.797 278.587L185.354 272.038L194.015 282.031H201.948L210.609 272.038L218.166 278.587L206.515 292.031H189.448L177.797 278.587Z" fill="white"/>
<path fill-rule="evenodd" clip-rule="evenodd" d="M297.523 190.939V223.449L242.541 241.776L239.379 232.289L287.523 216.241V190.939H297.523Z" fill="white"/>
<path fill-rule="evenodd" clip-rule="evenodd" d="M332.66 97.4438C334.523 115.14 321.38 130.311 303.469 130.311H282.341L285.813 171.978V172.186C285.813 176.25 288.385 180.241 292.669 182.689L292.818 182.774L310.452 194.53H319.975L338.38 182.751L338.488 182.689C342.339 180.488 344.731 176.584 345.37 171.662L349.268 124.896L359.233 125.726L355.318 172.704L355.306 172.806C354.369 180.298 350.554 187.259 343.565 191.305L322.901 204.53H307.424L287.55 191.28C281.029 187.493 275.905 180.678 275.814 172.409L271.473 120.311H303.469C315.245 120.311 323.978 110.482 322.715 98.4907L332.66 97.4438Z" fill="white"/>
<path fill-rule="evenodd" clip-rule="evenodd" d="M260.188 120.625C260.188 88.9573 285.864 63.2812 317.531 63.2812C349.199 63.2812 374.875 88.9573 374.875 120.625V232.344H364.875V120.625C364.875 94.4802 343.676 73.2812 317.531 73.2812C291.386 73.2812 270.188 94.4802 270.188 120.625V231.562H260.188V120.625Z" fill="white"/>
<path fill-rule="evenodd" clip-rule="evenodd" d="M146.852 39.375C146.852 17.8636 164.715 0 186.227 0C195.327 0 203.755 3.19972 210.445 8.47785C217.136 3.19972 225.564 0 234.664 0C256.175 0 274.039 17.8636 274.039 39.375C274.039 47.5474 271.308 55.6207 266.008 62.6875L265.795 62.9718L265.543 63.2231L265.542 63.2242L263.186 65.5807L209.636 118.293L157.573 66.2303L157.464 66.105C151.408 59.1839 146.852 50.2463 146.852 39.375ZM258.212 56.4119C262.148 51.0521 264.039 45.1657 264.039 39.375C264.039 23.3864 250.653 10 234.664 10C226.702 10 219.356 13.3163 213.981 18.6918L210.445 22.2273L206.91 18.6918C201.534 13.3163 194.189 10 186.227 10C170.238 10 156.852 23.3864 156.852 39.375C156.852 47.1964 160.061 53.8437 164.883 59.398L209.692 104.207L256.142 58.4819L258.212 56.4119Z" fill="#E10856"/>
</svg>
