<svg width="300" height="300" viewBox="0 0 300 300" fill="none" xmlns="http://www.w3.org/2000/svg">
<path d="M189.25 26.8646L178.817 54.0881L152.849 40.8942C138.577 33.6391 126.764 27.7034 126.645 27.7034C126.525 27.7034 131.741 39.6361 138.216 54.2075C144.752 68.8372 149.968 80.8923 149.849 81.0698C149.787 81.2505 137.377 85.4474 122.386 90.3638C107.334 95.3413 95.0434 99.477 95.0434 99.6576C95.0434 99.8383 105.895 104.096 119.209 109.193C132.461 114.29 143.555 118.549 143.855 118.729C144.094 118.849 112.673 150.75 73.8781 189.548C19.9116 243.634 3.17886 260.721 2.15947 262.821C-0.779317 269.118 -0.718093 275.835 2.34008 281.77C4.55947 286.148 14.7534 295.923 19.1891 297.9C23.9248 300.058 30.1024 300.178 35.38 298.139C38.8575 296.881 41.6769 294.119 108.657 227.201C146.974 188.883 178.456 157.702 178.575 157.882C178.695 158.002 182.414 168.496 186.73 181.209C191.047 193.861 194.705 204.355 194.824 204.474C195.063 204.713 195.302 204.055 207.896 171.315C212.215 160.105 215.812 150.808 215.932 150.688C216.051 150.569 227.864 156.444 242.197 163.76C256.588 171.015 268.34 176.893 268.34 176.773C268.34 176.654 263.062 164.721 256.646 150.269C250.23 135.817 244.952 123.765 244.952 123.526C244.952 123.287 257.365 119.029 272.595 114.052C287.766 109.016 300.119 104.877 299.999 104.758C299.88 104.638 288.605 100.261 274.934 94.9832C261.262 89.7056 249.091 85.028 247.891 84.4893L245.73 83.5892L258.801 57.6239C265.998 43.2912 271.811 31.5391 271.753 31.4809C271.692 31.4197 259.82 36.6391 245.368 43.0555C230.977 49.4718 218.925 54.6881 218.684 54.6881C218.442 54.6881 214.245 42.4555 209.328 27.5258C204.47 12.6543 200.273 0.241029 200.093 0.00225271C199.86 -0.181421 195.005 11.8737 189.25 26.8646ZM205.079 53.9075C208.257 63.5627 211.015 71.4759 211.254 71.4759C211.493 71.4759 218.748 68.3565 227.264 64.5208C235.839 60.682 243.455 57.3239 244.233 57.0269C245.371 56.6075 244.171 59.3657 237.097 73.2759C232.419 82.5117 228.703 90.1862 228.822 90.3056C228.942 90.425 236.616 93.425 245.852 96.9607C255.088 100.5 262.882 103.496 263.12 103.677C263.362 103.858 255.804 106.555 246.33 109.674C236.855 112.793 228.819 115.61 228.581 115.852C228.281 116.09 231.458 123.826 235.536 133.001C239.613 142.175 242.913 149.791 242.852 149.911C242.733 150.03 235.355 146.433 226.422 141.995C217.487 137.498 209.932 133.839 209.693 133.839C209.393 133.839 206.276 141.456 202.676 150.75C199.138 160.105 196.021 167.96 195.779 168.199C195.538 168.499 193.741 164.002 191.821 158.185L188.35 147.691L199.263 136.659C212.454 123.287 213.476 121.607 213.476 113.152C213.476 105.655 212.338 103.496 204.66 95.6413C196.686 87.5474 194.047 86.1668 186.492 86.1668C178.156 86.1668 176.237 87.3056 163.946 99.4189L153.932 109.374L142.358 104.996L130.845 100.558L148.174 94.8607C157.71 91.6831 165.804 88.9831 166.223 88.8638C166.704 88.6831 164.484 83.0474 159.507 71.8341C155.368 62.6596 152.01 54.9851 152.01 54.7432C152.01 54.5045 159.446 58.0402 168.559 62.6596C177.672 67.2178 185.23 70.8147 185.408 70.6341C185.647 70.4535 187.747 65.1178 190.205 58.7596C197.821 38.8524 198.899 36.033 199.079 36.2136C199.202 36.3391 201.902 44.3136 205.079 53.9075ZM188.65 98.4607C191.766 99.3607 200.944 108.835 201.483 111.774C202.321 116.152 201.244 117.471 172.159 146.433L144.816 173.715L135.4 164.241L125.925 154.827L153.21 127.484C178.633 101.999 183.13 97.9219 185.889 97.8607C186.25 97.8607 187.45 98.1607 188.65 98.4607ZM126.825 173.115L136.119 182.409L85.4495 233.14C57.5678 261.021 33.7024 284.648 32.4412 285.606C29.9218 287.464 26.5055 287.945 24.1055 286.687C22.1861 285.729 14.1503 277.751 13.1309 275.832C12.1115 273.912 12.0503 271.273 12.8922 268.935C13.4309 267.496 116.331 163.818 117.228 163.818C117.412 163.821 121.728 168.018 126.825 173.115Z" fill="white"/>
<path d="M239.015 220.965C235.599 229.601 232.537 236.976 232.118 237.337C231.76 237.756 224.382 240.814 215.746 244.234C207.114 247.592 200.156 250.589 200.275 250.77C200.394 251.011 207.711 254.008 216.466 257.425L232.357 263.66L238.831 280.029C242.97 290.523 245.428 296.1 245.728 295.62C246.028 295.2 248.967 287.826 252.386 279.31L258.503 263.719L274.094 257.602C282.607 254.183 289.984 251.247 290.404 250.947C290.884 250.647 285.307 248.189 274.813 244.05L258.445 237.573L252.209 221.682C248.792 212.927 245.792 205.61 245.554 205.491C245.37 205.378 242.373 212.333 239.015 220.965ZM247.889 241.534L249.809 246.45L254.906 248.37C257.664 249.45 259.945 250.528 259.945 250.708C259.945 250.947 257.845 251.847 255.328 252.808C252.751 253.767 250.351 254.847 249.992 255.205C249.631 255.564 248.554 257.964 247.596 260.483C246.634 263.06 245.734 265.16 245.496 265.16C245.315 265.16 244.234 262.883 243.157 260.125L241.237 255.028L236.321 253.108C233.682 252.028 231.285 251.008 231.043 250.828C230.805 250.589 232.963 249.508 235.902 248.431L241.179 246.392L243.212 241.114C244.292 238.176 245.37 236.018 245.609 236.256C245.789 236.498 246.809 238.895 247.889 241.534Z" fill="#E10856"/>
<path d="M163.706 215.631L160.887 223.186L153.451 226.005C149.374 227.563 146.016 229.002 146.016 229.183C146.016 229.363 149.374 230.802 153.451 232.36L160.887 235.18L163.706 242.735C165.326 246.812 166.765 249.99 167.003 249.751C167.181 249.512 168.562 246.212 170 242.496C171.439 238.78 172.878 235.541 173.239 235.241C173.6 235.002 176.959 233.56 180.614 232.121C184.333 230.683 187.391 229.363 187.391 229.183C187.391 229.002 184.333 227.683 180.614 226.244C176.956 224.805 173.597 223.366 173.239 223.124C172.878 222.824 171.439 219.586 170 215.869C168.562 212.153 167.181 208.853 167.003 208.614C166.765 208.375 165.326 211.553 163.706 215.631Z" fill="#E10856"/>
</svg>
