<svg width="300" height="304" viewBox="0 0 300 304" fill="none" xmlns="http://www.w3.org/2000/svg">
<path d="M31.613 0.380683C17.4914 2.47867 5.26473 13.4629 1.04631 27.8368C-0.358811 32.6507 -0.358811 44.0645 1.10753 52.5182C2.26775 59.4919 5.26473 69.4875 6.97597 72.3239C8.80967 75.4076 10.0311 75.6547 24.3364 75.6547H37.4784V172.839C37.4784 240.095 37.6621 270.946 38.1519 273.227C38.5192 275.016 39.9243 278.841 41.3295 281.68C45.7928 290.938 54.1072 298.094 64.6195 301.733C68.3482 303.028 68.5931 303.028 169.462 303.213C278.89 303.399 273.447 303.522 280.601 300.127C284.329 298.338 291.542 291.426 294.11 287.109C301.69 274.398 301.996 257.679 294.784 245.644C292.154 241.201 286.775 235.587 284.085 234.477C282.496 233.798 277.971 233.612 263.054 233.612H244.101V135.634C244.101 78.8681 243.795 35.861 243.489 33.2687C241.594 18.4592 231.569 6.42745 217.018 1.36942L213.229 0.0747795L123.974 0.0129833C74.8931 -0.0519028 33.3243 0.133498 31.613 0.380683ZM175.945 15.7463C173.013 19.8187 170.383 25.8037 169.465 30.5558C168.179 37.2205 169.22 50.1143 172.033 62.0843C172.278 62.8876 163.29 63.0112 94.5158 63.1348L16.7567 63.3202L15.5965 59.4332C13.3342 52.2154 12.7832 48.2048 12.722 39.8747C12.722 31.7299 12.7832 31.421 14.6781 27.4104C17.7945 20.7456 23.3599 15.873 30.4497 13.5896C32.3447 12.9717 48.6673 12.7863 105.46 12.7863L178.085 12.7245L175.945 15.7463ZM216.66 14.943C221.797 17.4117 226.319 21.9785 228.948 27.3455L230.965 31.5415L231.272 151.862C231.578 266.38 231.639 272.365 232.677 275.575C234.143 279.895 237.63 286.497 239.708 288.719L241.297 290.384L155.101 290.261L68.9665 290.076L64.8706 288.101C57.3521 284.523 51.9704 277.858 50.3816 270.146C49.8918 267.863 49.7081 238.862 49.7081 171.3V75.6609L116.894 75.5373C181.756 75.3519 184.14 75.2901 185.362 74.1809C187.563 72.1447 187.624 69.367 185.484 62.4581C179.004 41.3547 180.044 28.5227 188.907 20.069C194.836 14.3312 199.116 12.6658 207.124 12.913C211.768 13.0304 213.235 13.3394 216.66 14.943ZM282.986 250.708C286.105 255.337 287.51 259.9 287.51 265.518C287.51 272.983 285.064 279.277 280.053 284.585C274.674 290.323 268.989 291.744 261.468 289.152C254.375 286.683 249.241 281.996 246.064 275.084C244.475 271.691 244.414 271.135 244.23 259.041L244.046 246.577L262.203 246.701L280.42 246.886L282.986 250.708Z" fill="white"/>
<path d="M84.7391 101.881C79.4217 104.164 80.4594 111.629 86.3279 113.356C87.7942 113.789 105.522 113.913 139.086 113.789L189.704 113.604L191.599 111.691C194.776 108.422 193.983 103.546 190.01 101.819C186.952 100.524 87.6748 100.586 84.7391 101.881Z" fill="white"/>
<path d="M83.7569 140.444C80.7599 142.851 80.5793 147.48 83.3895 150.069C84.6109 151.181 86.3834 151.243 135.964 151.428C164.207 151.49 188.17 151.367 189.211 151.058C193.675 149.887 195.08 144.084 191.596 140.938L189.701 139.211H137.491C86.3222 139.211 85.2844 139.211 83.7569 140.444Z" fill="white"/>
<path d="M148.748 172.282C144.284 173.515 140.617 175.736 136.215 179.932C134.198 181.907 131.568 183.943 130.408 184.561C129.247 185.179 126.863 187.153 125.152 188.942C118.365 195.975 117.572 205.232 123.073 212.82L124.907 215.351V240.527C124.907 267.368 125.09 269.095 127.839 270.575C130.714 272.117 133.279 271.379 144.955 265.452L156.386 259.653L167.694 265.452C180.594 271.993 182.489 272.426 185.483 269.463L187.255 267.674V241.636V215.598L189.089 213.253C193.614 207.515 194.223 199.494 190.617 193.2C188.844 190.055 183.952 185.364 180.652 183.699C179.247 182.957 177.475 181.539 176.74 180.492C174.723 177.714 168.793 173.951 164.207 172.532C159.508 171.049 153.578 170.987 148.748 172.282ZM164.033 184.623C165.683 185.55 167.884 187.339 168.925 188.695C169.962 189.99 172.347 191.902 174.119 192.953C184.023 198.567 184.268 205.417 174.732 210.846C173.02 211.773 170.268 214.053 168.618 215.784C164.767 219.794 161.222 221.46 156.392 221.521C151.622 221.521 147.04 219.485 143.981 216.031C142.76 214.612 139.763 212.206 137.439 210.664C135.055 209.122 132.548 207.086 131.938 206.097C129.247 202.025 131.265 197.149 136.953 193.818C138.541 192.832 141.722 190.302 143.981 188.204C146.795 185.55 149.054 184.008 151.01 183.328C155.045 182.033 160.304 182.587 164.033 184.623ZM174.729 254.533C174.545 254.718 170.694 252.991 166.108 250.708C161.461 248.363 157.12 246.574 156.083 246.574C155.045 246.574 150.765 248.301 146.241 250.646C141.838 252.867 138.11 254.533 137.987 254.409C137.804 254.286 137.804 247.868 137.865 240.218L138.049 226.273L140.678 228.062C145.754 231.517 149.666 232.629 156.392 232.629C163.362 232.629 167.639 231.335 172.163 227.815L174.732 225.841L174.915 239.971C174.974 247.806 174.912 254.286 174.729 254.533Z" fill="#E10856"/>
</svg>
