<svg width="300" height="319" viewBox="0 0 300 319" fill="none" xmlns="http://www.w3.org/2000/svg">
<path d="M293.068 6.33116C274 24.3744 258.578 32.8865 242.388 34.23L237.397 34.6778L120.875 151.138C9.91577 262.097 4.28537 267.793 2.11109 272.206C-0.0015244 276.493 -0.128087 277.071 0.063379 281.805C0.446311 289.74 2.176 292.557 14.0112 304.587C26.106 316.873 28.0239 318.09 36.4063 318.025C51.3146 317.96 76.2702 307.595 97.3866 292.687C116.326 279.378 136.676 253.397 145.889 230.937L148.063 225.625L159.772 237.337L171.481 249.045L181.145 239.446C192.662 227.994 209.683 209.308 221.2 195.487L229.583 185.44L230.03 187.744C231.374 195.104 236.174 202.013 241.869 204.891C246.221 207.066 252.49 208.091 257.163 207.26C266.633 205.595 272.458 199.965 275.463 189.6C277.063 184.226 276.55 173.153 274.311 164.58C271.046 151.845 270.407 147.558 270.407 138.663C270.407 127.656 271.303 124.073 277.381 111.147C287.555 89.5832 292.546 75.697 296.515 58.0367C299.458 44.6633 300.162 36.9852 299.971 17.6601L299.779 -0.000226703L293.068 6.33116ZM286.99 33.8471C284.942 56.8847 278.543 78.3841 266.195 103.914C258.77 119.273 245.909 141.286 239.383 149.859C238.296 151.268 236.122 154.403 234.457 156.898C230.426 162.911 218.14 178.845 210.267 188.253C202.015 198.109 182.625 219.478 176.355 225.686L171.49 230.486L143.657 202.652L115.819 174.815L179.552 111.083L243.349 47.2854L247.253 46.9025C249.365 46.6461 252.244 46.1334 253.587 45.7504C254.866 45.3675 256.148 45.2377 256.339 45.4292C256.852 45.9419 250.452 57.5856 243.988 67.8891C227.736 93.8052 203.868 121.704 178.335 144.291C169.761 151.969 168.992 153.186 169.952 157.09C170.656 159.906 174.239 162.016 177.183 161.377C182.174 160.289 211.416 131.878 227.863 112.105C245.396 91.0533 257.809 72.3675 269.135 49.781L275.726 36.7256L281.038 33.0131C283.982 31.0303 286.607 29.3006 286.86 29.3006C287.181 29.2389 287.181 31.3515 286.99 33.8471ZM258.131 151.268C258.387 153.315 259.601 159.267 260.818 164.576C262.035 169.824 263.248 176.029 263.443 178.398C263.891 183.58 262.417 189.019 259.86 191.898C258.26 193.689 257.556 193.945 253.973 194.202C250.456 194.393 249.557 194.202 247.701 192.923C243.67 190.236 242.836 187.932 242.901 179.614C242.966 169.697 244.118 166.368 251.283 155.62C254.353 151.011 257.105 147.302 257.297 147.364C257.491 147.49 257.874 149.22 258.131 151.268ZM136.296 214.234C137.766 216.856 133.032 229.399 126.314 240.598C113.132 262.74 97.0718 278.862 76.9776 290.253C62.9 298.187 46.9012 304.265 38.3274 304.843L33.2714 305.226L24.3114 296.396C14.3292 286.479 12.3464 283.597 13.0506 279.696C13.4985 277.457 17.9152 272.849 60.0183 230.616L106.541 184.093L121.132 198.618C129.193 206.683 135.975 213.657 136.296 214.234Z" fill="white"/>
<path d="M100.524 215.065C97.451 216.795 96.4936 220.439 98.2201 223.769C101.163 229.464 110.059 227.225 110.059 220.76C109.997 215.769 104.876 212.634 100.524 215.065Z" fill="white"/>
<path d="M74.2911 241.299C73.4604 241.747 72.37 242.834 71.9222 243.668C68.3395 250.129 76.7867 256.529 81.9693 251.346C87.1518 246.164 80.7523 237.717 74.2911 241.299Z" fill="white"/>
<path d="M48.0543 267.536C42.359 270.671 44.7897 279.375 51.3807 279.437C57.8451 279.437 60.0843 270.541 54.3889 267.598C52.1498 266.449 50.102 266.384 48.0543 267.536Z" fill="white"/>
<path d="M214.364 227.478C211.677 227.861 209.948 230.165 205.661 238.677C198.174 253.524 195.679 261.328 195.743 269.201C195.87 283.727 203.486 292.557 215.643 292.495C221.721 292.43 225.434 290.769 229.399 286.352C234.39 280.787 236.247 270.61 233.878 261.523C232.021 254.358 223.512 234.007 220.761 230.168C219.355 228.182 216.795 227.095 214.364 227.478ZM218.138 255.89C221.465 264.72 222.234 268.111 221.721 272.271C221.147 276.941 218.969 279.437 215.578 279.437C209.179 279.437 206.813 270.606 210.46 260.047C211.869 255.951 215.069 248.591 215.387 248.847C215.451 248.977 216.733 252.115 218.138 255.89Z" fill="#E10856"/>
</svg>
