<svg width="300" height="234" viewBox="0 0 300 234" fill="none" xmlns="http://www.w3.org/2000/svg">
<path d="M65.181 0.254299C33.8396 2.7768 7.83704 26.0211 1.32263 57.3626C-0.14373 64.4617 -0.437614 75.4395 0.676694 83.8305C5.19515 117.872 24.5057 147.04 62.9494 177.797C71.3434 184.489 77.9741 189.301 96.8133 202.388C105.911 208.728 116.24 216.182 119.761 218.882L126.039 223.811L131.204 219.819C139.42 213.363 154.151 202.914 154.445 203.267C154.503 203.383 158.143 208.137 162.545 213.773C166.889 219.406 171.876 226.156 173.578 228.739C175.28 231.32 176.747 233.494 176.866 233.61C176.924 233.726 181.443 232.318 186.901 230.558C192.301 228.798 203.217 225.452 211.14 223.162C244.536 213.418 263.375 204.087 278.225 189.766C288.144 180.2 295.246 168.343 298.708 155.492C299.764 151.5 300 149.213 300 142.169C299.942 134.715 299.764 133.013 298.356 128.495C294.6 115.992 286.971 105.547 276.759 98.8552C269.715 94.2756 262.496 91.6949 252.636 90.2285C250.876 89.9347 250.465 89.6408 250.698 88.8785C251.344 86.7662 252.223 77.0222 252.223 71.5639C252.223 31.9478 220.293 0.0185859 180.619 0.0767503C162.013 0.0767503 145.638 6.88504 131.378 20.4435L126.042 25.4915L120.407 20.0914C105.033 5.41869 85.958 -1.44778 65.181 0.254299ZM83.61 13.2831C98.1052 16.3934 110.255 24.7874 120.762 38.8724C123.404 42.4541 125.81 45.3287 126.042 45.3287C126.275 45.3287 128.684 42.4541 131.323 38.8724C139.246 28.3079 147.171 21.6159 157.5 16.9812C179.391 7.0626 205.333 12.0494 222.647 29.3641C232.508 39.2245 238.554 51.9594 239.846 65.9281C240.372 71.7384 239.846 82.4192 238.731 87.703L238.085 90.8133L233.331 92.1663C230.689 92.8704 226.991 94.2786 225.115 95.2184L221.711 96.9787L220.477 94.4562C213.727 81.1916 200.582 70.9792 185.496 67.223C179.275 65.6985 166.95 65.873 161.079 67.5169C150.573 70.5108 142.298 75.3813 135.606 82.5417C125.862 92.9898 121.049 105.608 120.345 122.568C119.525 142.935 126.272 162.478 142.472 186.778L146.991 193.587L143.176 196.17C141.064 197.637 136.31 200.983 132.612 203.683L125.978 208.495L122.632 205.973C120.814 204.565 111.774 198.166 102.559 191.768C74.2761 172.103 60.2493 160.953 47.6889 147.98C26.8537 126.56 15.9954 106.487 12.7106 83.5978C11.7126 76.3211 12.3004 61.4708 13.8831 56.0707C20.3393 33.708 37.1244 17.9791 59.8391 13.0505C66.2372 11.7004 76.6241 11.7586 83.61 13.2831ZM183.677 79.312C189.019 80.7202 194.416 83.3621 198.877 86.7662C205.391 91.7561 209.499 98.0348 213.255 108.716C214.428 112.12 215.487 114.997 215.662 115.114C215.778 115.291 218.184 113.764 221.062 111.768C231.216 104.724 238.199 102.259 247.823 102.259C270.302 102.259 288.027 120.042 288.027 142.521C288.027 160.834 276.407 178.911 256.392 191.765C243.538 199.924 231.507 204.678 200.576 213.776C180.034 219.822 181.853 219.47 180.855 217.942C180.325 217.238 176.747 212.542 172.755 207.436C154.09 183.371 148.338 174.861 142.175 162.42C135.073 148.099 132.373 137.945 132.257 125.736C132.141 101.497 143.761 84.6509 164.477 79.0763C168.946 77.8456 178.455 77.962 183.677 79.312Z" fill="#E10856"/>
</svg>
