<svg width="300" height="307" viewBox="0 0 300 307" fill="none" xmlns="http://www.w3.org/2000/svg">
<path d="M140.663 0.31858C73.0724 3.7843 19.6165 51.5099 4.28353 122.166C0.486252 139.829 -1.04955 163.357 0.752123 177.89C3.81747 202.954 15.6816 221.083 34.8807 229.882C48.7467 236.281 68.8091 238.681 81.8743 235.546C84.9397 234.814 87.6735 234.214 88.0738 234.214C88.4085 234.214 88.6744 245.212 88.6744 262.209C88.6744 288.536 88.7401 290.338 90.0069 293.738C91.7397 298.405 95.0053 302.071 99.4062 304.535C102.672 306.334 103.604 306.534 109.006 306.534C114.539 306.534 115.271 306.4 118.871 304.335L122.672 302.202L126.538 304.335C130.069 306.4 130.804 306.534 136.337 306.534C141.871 306.534 142.603 306.4 146.137 304.335L150.003 302.202L153.804 304.335C157.401 306.4 158.136 306.534 163.669 306.534C169.202 306.534 169.934 306.4 173.469 304.335L177.335 302.202L181.135 304.335C184.735 306.4 185.467 306.534 191.001 306.534C196.399 306.534 197.335 306.334 200.6 304.535C205.001 302.071 208.267 298.402 210 293.738C211.266 290.338 211.332 288.539 211.332 262.209C211.332 245.612 211.598 234.214 211.933 234.214C212.267 234.214 215.198 234.88 218.464 235.615C229.53 238.28 249.258 236.281 261.923 231.283C279.455 224.283 291.851 209.754 296.849 190.223C303.38 165.028 299.514 125.1 287.518 94.9064C273.574 59.5079 248.51 31.2473 216.85 15.3826C199.918 6.84963 179.255 1.31949 161.326 0.518748C157.129 0.318562 152.793 0.118395 151.661 0.0527085C150.594 -0.0817914 145.593 0.0527085 140.663 0.31858ZM163.591 14.2502C190.388 16.7839 214.982 26.8494 234.579 43.2459C258.107 62.9111 274.838 91.1717 281.904 123.367C288.77 154.427 287.769 181.69 279.239 198.356C275.238 206.153 268.172 213.154 260.509 216.82C253.778 220.085 247.112 221.884 237.844 222.885C230.112 223.751 224.648 223.351 218.113 221.486C210.25 219.219 205.583 218.287 203.916 218.621C201.116 219.288 199.518 220.288 198.717 222.021C198.182 223.088 197.985 233.485 197.985 255.283C197.985 290.013 197.92 290.479 194.053 292.477C191.52 293.81 190.453 293.81 187.988 292.543C185.79 291.411 183.988 288.477 183.988 285.943C183.988 285.011 183.121 283.278 182.055 282.077C180.456 280.279 179.656 279.878 177.388 279.878C173.788 279.878 171.589 282.077 170.322 286.944C168.855 292.477 165.189 294.676 160.857 292.609C158.589 291.542 156.659 288.342 156.659 285.543C156.659 284.811 155.793 283.275 154.726 282.077C150.926 277.811 144.795 279.812 143.328 285.812C142.13 290.344 141.461 291.476 139.062 292.609C134.795 294.676 131.129 292.477 129.662 286.944C128.396 282.077 126.197 279.878 122.597 279.878C120.329 279.878 119.531 280.279 117.93 282.077C116.863 283.278 115.997 285.011 115.997 285.943C115.997 288.477 114.198 291.408 111.996 292.543C109.531 293.81 108.465 293.81 105.931 292.477C102.065 290.479 101.999 290.078 101.999 254.952V223.022L100.332 221.024C97.5326 217.623 94.9333 217.689 81.8024 221.49C75.337 223.357 69.3377 223.823 61.471 222.888C46.8074 221.289 36.6761 216.957 28.6092 208.89C15.2812 195.553 10.8834 173.357 15.0842 140.23C20.1514 100.437 37.8147 66.308 65.409 43.2459C91.7366 21.2474 127.063 10.7845 163.591 14.2502Z" fill="white"/>
<path d="M64.0078 89.5049C52.544 93.0363 45.0777 104.103 42.0124 121.966C40.8801 128.366 41.4806 146.364 43.0133 152.229C43.6138 154.628 45.4812 159.426 47.1453 162.892C49.7445 168.291 51.0113 170.089 55.944 174.89C60.7423 179.689 62.7441 181.156 68.0084 183.689C75.4059 187.221 82.4718 189.222 91.4708 190.155C114.933 192.754 131.33 187.355 137.864 174.956C141.129 168.957 142.662 161.825 142.731 153.227C142.797 146.896 142.531 145.094 140.932 140.296C134.467 120.699 112.537 100.037 90.4073 92.5702C80.7389 89.3047 69.075 87.9722 64.0078 89.5049ZM83.0035 104.168C101.802 109.633 122.331 127.631 127.998 143.761C131.464 153.627 128.399 168.757 122.065 173.158C112.8 179.557 86.804 178.556 73.0068 171.359C67.1419 168.225 61.8089 162.695 59.0094 156.761C55.8752 150.161 54.6772 144.162 54.6772 134.431C54.6772 121.635 57.2108 112.167 62.1436 106.568C63.6762 104.835 65.5436 103.168 66.2755 102.836C68.4087 101.901 77.7393 102.701 83.0035 104.168Z" fill="white"/>
<path d="M219.314 89.8362C192.918 95.3694 166.656 117.365 159.058 140.296C157.46 145.094 157.191 146.895 157.26 153.226C157.394 174.956 166.859 186.954 186.321 189.885C202.251 192.284 218.782 190.02 231.979 183.686C237.246 181.152 239.245 179.685 244.043 174.887C248.976 170.089 250.243 168.29 252.842 162.888C257.109 153.958 258.041 149.692 258.441 137.293C259.042 120.562 256.643 110.03 249.908 100.164C246.909 95.7667 244.375 93.4989 239.708 91.0998C236.843 89.5672 235.31 89.3013 229.977 89.1668C226.449 89.0385 221.713 89.3701 219.314 89.8362ZM237.378 106.101C242.711 111.966 245.31 121.165 245.31 134.431C245.31 144.162 244.112 150.161 240.978 156.761C238.179 162.694 232.845 168.225 226.981 171.359C213.183 178.556 187.187 179.557 177.923 173.157C173.256 169.957 170.656 162.691 170.656 152.826C170.656 143.561 174.788 135.097 184.053 125.297C197.716 110.899 215.583 101.9 229.58 102.435L234.178 102.636L237.378 106.101Z" fill="white"/>
<path d="M142.463 199.419C140.996 201.087 131.465 224.214 130.198 229.282C129.197 233.213 129.266 233.614 130.264 235.212C130.864 236.147 132.131 237.211 133.063 237.545C135.528 238.478 139.794 238.346 141.928 237.28C144.061 236.147 147.727 232.147 148.793 229.813C149.594 228.08 150.661 227.68 150.661 229.078C150.661 229.544 151.461 231.146 152.459 232.678C156.526 239.009 166.457 240.877 169.657 235.944C170.589 234.477 170.657 233.745 169.991 230.411C168.859 225.078 159.525 201.55 157.792 199.682C155.725 197.414 152.659 197.884 151.261 200.683L150.195 202.747L148.396 200.483C146.394 197.952 144.13 197.552 142.463 199.419Z" fill="white"/>
</svg>
