<svg width="300" height="380" viewBox="0 0 300 380" fill="none" xmlns="http://www.w3.org/2000/svg">
<path d="M139.881 0.652223C117.699 3.20309 104.638 15.1821 100.157 36.9769C98.5324 44.9357 94.7449 71.9097 92.8143 89.068C89.8757 115.344 88.6391 133.119 86.8636 178.484L86.3983 189.92L80.8353 189.843C73.7254 189.843 70.4031 188.606 68.6237 185.516C67.5421 183.741 66.2279 175.545 63.2894 152.669C61.2037 135.976 58.963 117.275 58.4202 111.092C57.2611 98.5698 56.102 95.2475 51.3879 91.1537C47.9105 88.0639 45.9024 87.5212 38.2498 87.5212C24.724 87.5987 16.9978 95.0187 12.0511 112.638C8.49616 125.16 8.1085 130.723 8.1085 167.509C8.18603 211.254 8.95749 217.511 15.9898 231.579C22.2507 244.023 32.993 253.296 46.3637 257.472C54.7102 260.178 62.4404 261.027 77.354 261.027C84.5414 261.027 90.4146 261.259 90.4146 261.492C90.4146 263.732 97.6795 319.146 98.6061 323.705C98.9937 325.636 98.9162 325.636 91.4187 326.643C80.4437 328.035 64.2934 331.125 54.09 333.753C25.573 341.173 8.18215 350.834 2.38649 362.348C-1.9399 371.082 -0.241906 378.502 6.32909 379.661C7.72083 379.894 73.2563 379.971 151.934 379.894C293.829 379.661 295.065 379.661 296.763 378.118C299.547 375.645 300.473 372.633 299.779 368.69C296.996 354.005 279.066 342.414 245.758 333.757C235.864 331.206 219.636 328.039 209.049 326.725C205.262 326.26 202.017 325.798 201.939 325.643C201.862 325.566 202.633 319.77 203.719 312.815C209.359 275.487 213.302 231.82 213.302 205.543V197.662H217.551C229.607 197.662 246.068 194.495 253.72 190.63C265.157 184.834 273.197 174.169 276.984 159.407C280.694 145.032 285.098 92.3244 284.172 73.6194C283.629 63.0321 282.241 58.7018 277.523 53.8327C273.274 49.4288 268.328 47.7269 260.059 47.7269C247.925 47.7269 240.198 53.6001 236.101 65.8892C234.554 70.5258 232.162 82.2721 228.375 103.218C225.207 121.07 224.897 122.152 222.346 123.854C220.416 125.09 211.216 127.021 210.522 126.327C210.29 126.172 209.67 120.454 209.053 113.728C206.58 86.3698 200.939 45.3311 198.156 34.8214C193.519 16.8141 185.018 6.38196 171.802 2.5169C163.374 0.0358132 151.317 -0.661977 139.881 0.652223ZM163.452 16.8839C177.981 19.5898 181.769 27.0098 186.948 62.4041C194.523 114.34 197.535 159.628 196.842 209.474C196.299 246.183 194.368 268.133 187.491 314.118C183.703 339.7 183.548 339.468 201.866 341.708C229.766 345.186 256.198 351.908 270.262 359.095C280.233 364.197 291.13 363.732 150.162 363.809C79.9126 363.809 22.4096 363.654 22.4096 363.422C22.4096 362.573 33.0744 357.316 40.4944 354.532C55.4856 348.969 73.4967 344.949 95.4427 342.166C109.973 340.309 112.291 339.692 113.993 336.987C115.768 334.281 115.617 330.497 113.299 314.575C110.98 298.964 106.344 261.945 105.185 249.811C101.01 206.764 102.324 145.633 108.662 89.8317C112.217 58.1436 116.005 35.81 118.711 30.4756C122.266 23.5208 129.22 18.4967 137.567 16.8723C142.583 15.8799 158.195 15.8799 163.452 16.8839ZM266.393 64.955C269.022 67.5834 268.944 85.5131 266.238 119.981C263.61 153.522 259.904 166.97 251.631 173.309C245.064 178.329 234.011 181.19 220.257 181.5L212.914 181.655L212.449 167.048C212.139 159.011 211.833 150.2 211.678 147.494L211.367 142.469L217.551 141.62C224.893 140.539 230.456 138.221 234.011 134.821C239.035 130.029 240.272 126.319 244.676 102.051C250.704 69.1263 251.941 65.1876 256.578 63.7958C259.439 62.9468 265.079 63.6408 266.393 64.955ZM42.0373 105.994C42.2699 107.308 42.7313 112.41 43.1965 117.279C43.5841 122.148 45.6698 139.845 47.833 156.538C52.0043 189.385 52.6246 191.855 57.8814 197.883C61.979 202.519 67.3095 204.605 77.4354 205.536C82.227 205.923 86.2472 206.385 86.3247 206.462C86.4022 206.54 86.8674 213.572 87.3288 221.996C87.7164 230.498 88.3328 239.309 88.5654 241.628L89.1082 245.799L74.5008 245.334C65.4603 245.024 58.1179 244.407 55.2569 243.632C36.7844 238.922 26.9686 226.322 24.7279 204.609C23.6463 194.871 23.7238 140.616 24.7279 130.804C25.9646 119.058 29.5195 107.696 32.7643 104.99C34.2335 103.753 38.4824 102.749 40.3393 103.21C41.1883 103.443 41.8047 104.524 42.0373 105.994Z" fill="white"/>
</svg>
